<?xml version="1.0" encoding="utf-8"?>
<!-- Generator: Adobe Illustrator 24.3.0, SVG Export Plug-In . SVG Version: 6.00 Build 0)  -->
<svg version="1.1" id="Layer_1" xmlns="http://www.w3.org/2000/svg" xmlns:xlink="http://www.w3.org/1999/xlink" x="0px" y="0px"
	 viewBox="0 0 1024 1024" style="enable-background:new 0 0 1024 1024;" xml:space="preserve">
<style type="text/css">
	.st0{fill:url(#SVGID_1_);}
	.st1{fill:url(#SVGID_2_);}
	.st2{fill:url(#SVGID_3_);}
	.st3{fill:url(#SVGID_4_);}
</style>
<g>
	
		<linearGradient id="SVGID_1_" gradientUnits="userSpaceOnUse" x1="267.4964" y1="145.2954" x2="1139.4716" y2="762.5402" gradientTransform="matrix(1 0 0 -1 0 1024.1102)">
		<stop  offset="0" style="stop-color:#7C3AED"/>
		<stop  offset="0.8092" style="stop-color:#C847D3"/>
		<stop  offset="0.9998" style="stop-color:#DB4ACD"/>
	</linearGradient>
	<path class="st0" d="M764.19,906.79c-32.26-9.69-64.6-19.21-96.79-29.14c-195.2-59.77-390.47-119.46-585.66-179.4
		c-32.06-9.85-56.26-32.95-68.49-76.17c-7.8-27.57,1.41-76.17,20.77-91.48c26.95-21.28,55.19-39.66,83.15-58.2
		c18.48-12.25,37.64-22.52,56.4-33.86c22.85-13.83,45.64-27.82,68.49-41.73c50.61-30.88,101.23-62.01,151.98-92.48
		c49.2-29.56,98.67-58.2,147.81-87.84c33.07-19.87,65.81-40.98,98.81-61.1c29.98-18.21,60.23-35.6,90.34-53.48
		c38.78-23.02,77.77-45.37,116.15-69.63c33.94-21.36,67.28-28.64,101.97-11.67c9.01,4.39,39.79,20.04,53.64,59.44
		c5.78,16.47,5.51,38.99,4.97,83.95c-0.07,6.37-0.34,21.28-4.17,83.53c-2.08,33.28-3.23,49.51-5.11,77.57
		c-2.29,34.85-3.29,54.48-5.98,99.26c-4.44,73.93-8.87,147.86-13.44,221.79c-2.49,40.32-4.84,80.55-7.86,120.79
		c-2.69,35.68-6.18,71.36-9.68,107.05c-2.76,28.23-18.75,42.31-35.09,52.82c-21.38,13.66-44.09,15.4-66.55,8.53
		C828.11,925.91,796.12,916.31,764.19,906.79z"/>
</g>
<g>
	<g>
		
			<linearGradient id="SVGID_2_" gradientUnits="userSpaceOnUse" x1="267.4856" y1="124.1767" x2="1139.4607" y2="741.4213" gradientTransform="matrix(1 0 0 -1 0 1024.1102)">
			<stop  offset="0" style="stop-color:#7C3AED"/>
			<stop  offset="0.7628" style="stop-color:#C816C4"/>
			<stop  offset="1" style="stop-color:#E10AB7"/>
		</linearGradient>
		<path class="st1" d="M764.19,927.9c-32.26-9.69-64.6-19.21-96.79-29.14c-195.2-59.77-390.47-119.46-585.66-179.4
			c-32.06-9.85-56.26-32.95-68.49-76.17c-7.8-27.57,1.41-76.17,20.77-91.48c26.95-21.28,55.19-39.66,83.15-58.2
			c18.48-12.25,37.64-22.52,56.4-33.86c22.85-13.83,45.64-27.82,68.49-41.73c50.61-30.88,101.23-62.01,151.98-92.48
			c49.2-29.56,98.67-58.2,147.81-87.84c33.07-19.87,65.81-40.98,98.81-61.1c29.98-18.21,60.23-35.6,90.34-53.48
			c38.78-23.02,77.77-45.37,116.15-69.63c33.94-21.36,67.28-28.64,101.97-11.67c9.01,4.39,39.79,20.04,53.64,59.44
			c5.78,16.47,5.51,38.99,4.97,83.95c-0.07,6.37-0.34,21.28-4.17,83.53c-2.08,33.28-3.23,49.51-5.11,77.57
			c-2.29,34.85-3.29,54.48-5.98,99.26c-4.44,73.93-8.87,147.86-13.44,221.79c-2.49,40.32-4.84,80.55-7.86,120.79
			c-2.69,35.68-6.18,71.36-9.68,107.05c-2.76,28.23-18.75,42.31-35.09,52.82c-21.38,13.66-44.09,15.4-66.55,8.53
			C828.11,947.02,796.12,937.5,764.19,927.9z"/>
	</g>
	
		<linearGradient id="SVGID_3_" gradientUnits="userSpaceOnUse" x1="909.8569" y1="513.4991" x2="340.0104" y2="-82.7309" gradientTransform="matrix(1 0 0 -1 0 1024.1102)">
		<stop  offset="5.315242e-03" style="stop-color:#2CFFF8"/>
		<stop  offset="0.4037" style="stop-color:#24B2F7"/>
		<stop  offset="1" style="stop-color:#1738F6"/>
	</linearGradient>
	<path class="st2" d="M719.76,1017.06c-25.14,0-50.21,0.08-75.35,0c-152.05-0.75-304.16-1.49-456.2-2.32
		c-25-0.17-46.11-10.68-61.37-37.01c-9.75-16.81-10.02-51,1.95-65.07c16.74-19.62,34.75-37.42,52.63-55.39
		c11.83-11.84,24.33-22.52,36.5-33.86c14.79-13.74,29.51-27.65,44.23-41.48c32.73-30.71,65.34-61.51,98.14-91.98
		c31.86-29.56,63.99-58.53,95.78-88.09c21.38-19.87,42.35-40.48,63.72-60.44c19.43-18.13,39.05-35.76,58.55-53.73
		c25.14-23.1,50.48-45.78,75.22-69.54c21.78-21.03,45.24-32.54,73.2-28.23c7.26,1.16,32.13,5.38,48.06,28.89
		c6.65,9.85,9.75,24.84,15.86,54.89c0.87,4.3,2.89,14.24,9.07,56.46c3.36,22.6,4.84,33.61,7.53,52.74
		c3.36,23.68,5.51,36.92,10.02,67.31c7.46,50.17,14.99,100.26,22.38,150.43c4.03,27.32,8.2,54.64,11.76,82.04
		c3.23,24.34,5.85,48.76,8.47,73.27c2.08,19.37-7.6,31.96-18.08,42.14c-13.71,13.41-30.11,19.04-47.59,19.04
		C769.5,1016.98,744.63,1017.06,719.76,1017.06z"/>
</g>
<g>
	
		<linearGradient id="SVGID_4_" gradientUnits="userSpaceOnUse" x1="907.9419" y1="506.6963" x2="345.0781" y2="-82.227" gradientTransform="matrix(1 0 0 -1 0 1024.1102)">
		<stop  offset="0" style="stop-color:#2CDDF8"/>
		<stop  offset="0.4793" style="stop-color:#2290F7"/>
		<stop  offset="1" style="stop-color:#1738F6"/>
	</linearGradient>
	<path class="st3" d="M721.1,1017.06c-24.87,0-49.74,0.08-74.61,0c-150.57-0.75-301.2-1.49-451.77-2.32
		c-24.74-0.17-45.64-10.51-60.83-36.51c-9.61-16.56-9.95-50.25,1.95-64.08c16.54-19.29,34.42-36.92,52.09-54.56
		c11.7-11.67,24.13-22.19,36.16-33.28c14.65-13.58,29.24-27.24,43.83-40.9c32.4-30.22,64.66-60.6,97.2-90.65
		c31.52-29.06,63.39-57.62,94.91-86.76c21.17-19.54,41.94-39.9,63.12-59.53c19.22-17.88,38.72-35.27,58.01-52.9
		c24.87-22.77,50.01-45.12,74.48-68.55c21.58-20.7,44.83-32.04,72.46-27.73c7.19,1.08,31.86,5.3,47.59,28.48
		c6.59,9.69,9.61,24.51,15.73,54.06c0.87,4.22,2.82,14.07,9.01,55.63c3.29,22.19,4.77,33.12,7.46,51.91
		c3.36,23.35,5.44,36.43,9.95,66.31c7.39,49.43,14.85,98.77,22.18,148.19c4.03,26.91,8.13,53.81,11.7,80.8
		c3.16,24.01,5.78,48.02,8.4,72.11c2.02,19.12-7.53,31.46-17.95,41.56c-13.58,13.16-29.84,18.79-47.19,18.71
		C770.37,1016.98,745.7,1017.06,721.1,1017.06z"/>
</g>
</svg>
